<svg width="15" height="15" viewBox="0 0 15 15" fill="none" xmlns="http://www.w3.org/2000/svg">
<path d="M6.75 7.5C7.57843 7.5 8.25 6.66053 8.25 5.625C8.25 4.58947 7.57843 3.75 6.75 3.75C5.92157 3.75 5.25 4.58947 5.25 5.625C5.25 6.66053 5.92157 7.5 6.75 7.5Z" stroke="#D0D0D0" stroke-width="2" stroke-linecap="round" stroke-linejoin="round"/>
<path d="M6.75 1.5C5.55653 1.5 4.41193 1.9425 3.56802 2.73015C2.72411 3.5178 2.25 4.58609 2.25 5.7C2.25 6.6933 2.47612 7.34325 3.09375 8.0625L6.75 12L10.4062 8.0625C11.0239 7.34325 11.25 6.6933 11.25 5.7C11.25 4.58609 10.7759 3.5178 9.93198 2.73015C9.08807 1.9425 7.94347 1.5 6.75 1.5V1.5Z" stroke="#D0D0D0" stroke-width="2" stroke-linecap="round" stroke-linejoin="round"/>
</svg>
