<svg width="18" height="15" viewBox="0 0 18 15" fill="none" xmlns="http://www.w3.org/2000/svg">
<path d="M17.1798 4.25774V11.7395C17.1799 12.5023 16.907 13.2362 16.4173 13.7907C15.9276 14.3451 15.2581 14.6781 14.5462 14.7213L14.3881 14.7259H2.79172C2.07864 14.7259 1.39257 14.4341 0.874255 13.9102C0.355937 13.3863 0.0446664 12.6701 0.00429505 11.9085L0 11.7395V4.25774L8.29098 8.90372C8.38322 8.9554 8.48579 8.9824 8.58991 8.9824C8.69404 8.9824 8.79661 8.9554 8.88884 8.90372L17.1798 4.25774ZM2.79172 0.0234375H14.3881C15.0801 0.0233484 15.7474 0.298185 16.2607 0.794643C16.774 1.2911 17.0967 1.97379 17.1661 2.71031L8.58991 7.51618L0.0137439 2.71031C0.0803358 2.00304 0.380576 1.34438 0.860494 0.852714C1.34041 0.361051 1.96853 0.0686356 2.63195 0.0280321L2.79172 0.0234375H14.3881H2.79172Z" fill="black"/>
</svg>
